<?xml version="1.0" encoding="UTF-8" standalone="no" ?>
<!DOCTYPE svg PUBLIC "-//W3C//DTD SVG 1.1//EN" "http://www.w3.org/Graphics/SVG/1.1/DTD/svg11.dtd">
<svg xmlns="http://www.w3.org/2000/svg" xmlns:xlink="http://www.w3.org/1999/xlink" version="1.1" width="32" height="32" viewBox="0 0 32 32" xml:space="preserve">
<desc>Created with Fabric.js 3.6.6</desc>
<defs>
</defs>
<rect x="0" y="0" width="100%" height="100%" fill="rgba(255, 0, 0, 0)"></rect>
<g transform="matrix(1 0 0 1 16.34 7.84)"  >
<path style="stroke: rgb(255,0,0); stroke-width: 2; stroke-dasharray: none; stroke-linecap: butt; stroke-dashoffset: 0; stroke-linejoin: miter; stroke-miterlimit: 4; fill: none; fill-rule: nonzero; opacity: 1;"  transform=" translate(-15.33, -6.83)" d="M 2.6666666666666665 7 L 28 6.666666666666666" stroke-linecap="round" />
</g>
<g transform="matrix(1 0 0 1 13.17 6)"  >
<path style="stroke: rgb(255,0,0); stroke-width: 2; stroke-dasharray: none; stroke-linecap: butt; stroke-dashoffset: 0; stroke-linejoin: miter; stroke-miterlimit: 4; fill: none; fill-rule: nonzero; opacity: 1;"  transform=" translate(-12.17, -5)" d="M 12.333333333333332 7.333333333333333 L 12 2.6666666666666665 L 12.333333333333332 7.333333333333333 L 12.333333333333332 7.333333333333333" stroke-linecap="round" />
</g>
<g transform="matrix(1 0 0 1 17.66 3.33)"  >
<path style="stroke: rgb(255,0,0); stroke-width: 2; stroke-dasharray: none; stroke-linecap: butt; stroke-dashoffset: 0; stroke-linejoin: miter; stroke-miterlimit: 4; fill: none; fill-rule: nonzero; opacity: 1;"  transform=" translate(-16.67, -2.33)" d="M 12.333333333333332 2.333333333333333 L 21 2.333333333333333 L 12.333333333333332 2.333333333333333 L 12.333333333333332 2.333333333333333" stroke-linecap="round" />
</g>
<g transform="matrix(1 0 0 1 22.5 6.16)"  >
<path style="stroke: rgb(255,0,0); stroke-width: 2; stroke-dasharray: none; stroke-linecap: butt; stroke-dashoffset: 0; stroke-linejoin: miter; stroke-miterlimit: 4; fill: none; fill-rule: nonzero; opacity: 1;"  transform=" translate(-21.5, -5.17)" d="M 22 3.333333333333333 L 21 7" stroke-linecap="round" />
</g>
<g transform="matrix(1 0 0 1 16.67 19)"  >
<path style="stroke: rgb(255,0,0); stroke-width: 2; stroke-dasharray: none; stroke-linecap: butt; stroke-dashoffset: 0; stroke-linejoin: miter; stroke-miterlimit: 4; fill: rgb(255,0,0); fill-opacity: 0; fill-rule: nonzero; opacity: 1;"  transform=" translate(-15.67, -18)" d="M 6 7.666666666666666 L 9 28.666666666666664 L 22.666666666666664 28.333333333333332 L 25.333333333333332 7.333333333333333" stroke-linecap="round" />
</g>
<g transform="matrix(1 0 0 1 11.33 11)"  >
<line style="stroke: rgb(0,0,0); stroke-width: 2; stroke-dasharray: none; stroke-linecap: butt; stroke-dashoffset: 0; stroke-linejoin: miter; stroke-miterlimit: 4; fill: rgb(0,0,0); fill-rule: nonzero; opacity: 1;"  x1="0" y1="0" x2="0" y2="0" />
</g>
<g transform="matrix(1 0 0 1 12 11.67)"  >
<line style="stroke: rgb(0,0,0); stroke-width: 2; stroke-dasharray: none; stroke-linecap: butt; stroke-dashoffset: 0; stroke-linejoin: miter; stroke-miterlimit: 4; fill: rgb(0,0,0); fill-rule: nonzero; opacity: 1;"  x1="0" y1="0" x2="0" y2="0" />
</g>
<g transform="matrix(1 0 0 1 13.17 19)"  >
<line style="stroke: rgb(255,0,0); stroke-width: 2; stroke-dasharray: none; stroke-linecap: butt; stroke-dashoffset: 0; stroke-linejoin: miter; stroke-miterlimit: 4; fill: rgb(0,0,0); fill-rule: nonzero; opacity: 1;" vector-effect="non-scaling-stroke"  x1="-0.8333333333333339" y1="-7.666666666666666" x2="0.8333333333333339" y2="7.666666666666666" />
</g>
<g transform="matrix(1 0 0 1 20 19)"  >
<line style="stroke: rgb(255,0,0); stroke-width: 2; stroke-dasharray: none; stroke-linecap: butt; stroke-dashoffset: 0; stroke-linejoin: miter; stroke-miterlimit: 4; fill: rgb(0,0,0); fill-rule: nonzero; opacity: 1;" vector-effect="non-scaling-stroke"  x1="1" y1="-7.333333333333333" x2="-1" y2="7.333333333333333" />
</g>
</svg>