<?xml version="1.0" encoding="UTF-8" standalone="no" ?>
<!DOCTYPE svg PUBLIC "-//W3C//DTD SVG 1.1//EN" "http://www.w3.org/Graphics/SVG/1.1/DTD/svg11.dtd">
<svg xmlns="http://www.w3.org/2000/svg" xmlns:xlink="http://www.w3.org/1999/xlink" version="1.1" width="32" height="32" viewBox="0 0 32 32" xml:space="preserve">
<desc>Created with Fabric.js 3.6.6</desc>
<defs>
</defs>
<g transform="matrix(1 0 0 0.9 21.16 14.3)"  >
<path style="stroke: rgb(0,215,255); stroke-width: 2; stroke-dasharray: none; stroke-linecap: butt; stroke-dashoffset: 0; stroke-linejoin: miter; stroke-miterlimit: 4; fill: none; fill-rule: nonzero; opacity: 1;"  transform=" translate(-19.83, -16.33)" d="M 12 29 L 27.666666666666664 9 L 21.666666666666664 3.6666666666666665" stroke-linecap="round" />
</g>
<g transform="matrix(1 0 0 1 22.67 4.67)"  >
<line style="stroke: rgb(0,0,0); stroke-width: 2; stroke-dasharray: none; stroke-linecap: butt; stroke-dashoffset: 0; stroke-linejoin: miter; stroke-miterlimit: 4; fill: rgb(0,0,0); fill-rule: nonzero; opacity: 1;"  x1="0" y1="0" x2="0" y2="0" />
</g>
<g transform="matrix(1 0 0 1 16.01 12.34)"  >
<line style="stroke: rgb(0,216,255); stroke-width: 2; stroke-dasharray: none; stroke-linecap: butt; stroke-dashoffset: 0; stroke-linejoin: miter; stroke-miterlimit: 4; fill: rgb(0,0,0); fill-rule: nonzero; opacity: 1;"  x1="8" y1="-9.666666666666666" x2="-8" y2="9.666666666666666" />
</g>
<g transform="matrix(1 0 0 1 8.67 21)"  >
<line style="stroke: rgb(0,0,0); stroke-width: 2; stroke-dasharray: none; stroke-linecap: butt; stroke-dashoffset: 0; stroke-linejoin: miter; stroke-miterlimit: 4; fill: rgb(0,0,0); fill-rule: nonzero; opacity: 1;"  x1="0" y1="0" x2="0" y2="0" />
</g>
<g transform="matrix(1 0 0 1 7.5 25.67)"  >
<line style="stroke: rgb(0,197,255); stroke-width: 2; stroke-dasharray: none; stroke-linecap: butt; stroke-dashoffset: 0; stroke-linejoin: miter; stroke-miterlimit: 4; fill: rgb(0,0,0); fill-rule: nonzero; opacity: 1;"  x1="1.1666666666666665" y1="-4" x2="-1.1666666666666665" y2="4" />
</g>
<g transform="matrix(1 0 0 1 10.16 27.34)"  >
<line style="stroke: rgb(0,215,255); stroke-width: 2; stroke-dasharray: none; stroke-linecap: butt; stroke-dashoffset: 0; stroke-linejoin: miter; stroke-miterlimit: 4; fill: rgb(0,0,0); fill-rule: nonzero; opacity: 1;"  x1="3.8333333333333335" y1="-1.6666666666666679" x2="-3.8333333333333335" y2="1.6666666666666679" />
</g>
<g transform="matrix(1 0 0 1 11.83 24)"  >
<line style="stroke: rgb(0,225,255); stroke-width: 2; stroke-dasharray: none; stroke-linecap: butt; stroke-dashoffset: 0; stroke-linejoin: miter; stroke-miterlimit: 4; fill: rgb(0,0,0); fill-rule: nonzero; opacity: 1;"  x1="-2.5" y1="-1.666666666666666" x2="2.5" y2="1.666666666666666" />
</g>
<g transform="matrix(1 0 0 1 23.17 10.5)"  >
<line style="stroke: rgb(0,223,235); stroke-width: 2; stroke-dasharray: none; stroke-linecap: butt; stroke-dashoffset: 0; stroke-linejoin: miter; stroke-miterlimit: 4; fill: rgb(0,0,0); fill-rule: nonzero; opacity: 1;" vector-effect="non-scaling-stroke"  x1="-2.833333333333334" y1="-2.1666666666666665" x2="2.833333333333334" y2="2.1666666666666665" />
</g>
</svg>